<svg width="1131" height="154" viewBox="0 0 1131 154" fill="none" xmlns="http://www.w3.org/2000/svg">
<path d="M73.9821 148.484L41.1568 91.3397H23.3034V148.484H-6.10352e-05V5.62354H49.1752C60.1379 5.62354 69.3465 7.5702 76.9264 11.4007C84.5063 15.2313 90.2068 20.3805 93.9655 26.7857C97.7241 33.2536 99.6034 40.4124 99.6034 48.3874C99.6034 57.6812 96.9097 66.1586 91.5224 73.7569C86.135 81.3552 77.8034 86.5044 66.5902 89.2674L101.859 148.484H73.9821ZM23.366 72.6266H49.1752C57.9453 72.6266 64.5229 70.4287 68.9706 66.033C73.4183 61.6373 75.6109 55.7345 75.6109 48.3874C75.6109 41.0403 73.4183 35.2003 69.0333 30.993C64.6482 26.7857 58.008 24.7134 49.1752 24.7134H23.366V72.6266Z" fill="#1477FB"/>
<path d="M146.586 144.906C138.944 141.577 132.93 136.805 128.545 130.651C124.16 124.497 121.967 117.276 121.967 109.049H146.962C147.526 115.203 149.906 120.29 154.229 124.246C158.551 128.202 164.565 130.211 172.395 130.211C180.226 130.211 186.741 128.265 191.251 124.371C195.761 120.478 198.017 115.454 198.017 109.238C198.017 104.465 196.638 100.509 193.819 97.4949C191 94.4807 187.555 92.1573 183.358 90.5246C179.161 88.8919 173.398 87.0708 166.006 85.1869C156.734 82.7379 149.154 80.2261 143.329 77.7143C137.503 75.2024 132.554 71.2463 128.482 65.9087C124.41 60.571 122.343 53.4123 122.343 44.5581C122.343 36.3319 124.41 29.1732 128.482 22.9564C132.554 16.8024 138.317 12.0927 145.709 8.76457C153.101 5.4992 161.621 3.80371 171.33 3.80371C185.112 3.80371 196.45 7.25747 205.283 14.165C214.116 21.0725 219.002 30.5547 219.942 42.6115H194.133C193.694 37.3994 191.251 32.9409 186.741 29.236C182.23 25.531 176.279 23.7099 168.887 23.7099C162.184 23.7099 156.734 25.4054 152.475 28.8592C148.215 32.313 146.148 37.211 146.148 43.679C146.148 48.0747 147.463 51.654 150.157 54.4798C152.85 57.3056 156.233 59.5035 160.305 61.1362C164.377 62.7689 170.015 64.5899 177.094 66.4738C186.553 69.0484 194.195 71.6859 200.146 74.2605C206.098 76.8351 211.172 80.854 215.306 86.2545C219.503 91.6549 221.571 98.8764 221.571 107.919C221.571 115.203 219.629 122.048 215.745 128.453C211.861 134.921 206.16 140.07 198.706 143.964C191.251 147.857 182.481 149.804 172.333 149.804C162.748 149.804 154.166 148.108 146.523 144.78L146.586 144.906Z" fill="#1477FB"/>
<path d="M266.299 144.906C258.656 141.577 252.642 136.805 248.257 130.651C243.872 124.497 241.68 117.276 241.68 109.049H266.674C267.238 115.203 269.619 120.29 273.941 124.246C278.264 128.202 284.277 130.211 292.108 130.211C299.938 130.211 306.453 128.265 310.964 124.371C315.474 120.478 317.729 115.454 317.729 109.238C317.729 104.465 316.351 100.509 313.532 97.4949C310.713 94.4807 307.268 92.1573 303.07 90.5246C298.873 88.8919 293.11 87.0708 285.718 85.1869C276.447 82.7379 268.867 80.2261 263.041 77.7143C257.215 75.2024 252.266 71.2463 248.195 65.9087C244.123 60.571 242.055 53.4123 242.055 44.5581C242.055 36.3319 244.123 29.1732 248.195 22.9564C252.266 16.8024 258.03 12.0927 265.422 8.76457C272.814 5.4992 281.333 3.80371 291.043 3.80371C304.824 3.80371 316.163 7.25747 324.996 14.165C333.828 21.0725 338.715 30.5547 339.654 42.6115H313.845C313.407 37.3994 310.964 32.9409 306.453 29.236C301.943 25.531 295.992 23.7099 288.6 23.7099C281.897 23.7099 276.447 25.4054 272.187 28.8592C267.927 32.313 265.86 37.211 265.86 43.679C265.86 48.0747 267.176 51.654 269.869 54.4798C272.563 57.3056 275.946 59.5035 280.018 61.1362C284.089 62.7689 289.727 64.5899 296.806 66.4738C306.265 69.0484 313.908 71.6859 319.859 74.2605C325.81 76.8351 330.884 80.854 335.019 86.2545C339.216 91.6549 341.283 98.8764 341.283 107.919C341.283 115.203 339.341 122.048 335.457 128.453C331.573 134.921 325.873 140.07 318.418 143.964C310.964 147.857 302.193 149.804 292.045 149.804C282.461 149.804 273.878 148.108 266.236 144.78L266.299 144.906Z" fill="#1477FB"/>
<path d="M375.737 13.9138C384.507 7.19468 395.72 3.80371 409.439 3.80371C418.836 3.80371 426.917 5.4364 433.745 8.63898C440.573 11.9044 445.71 16.3001 449.218 21.8261C452.726 27.4149 454.417 33.6317 454.417 40.6648C454.417 48.7026 452.225 55.5474 447.777 61.199C443.329 66.9134 438.067 70.6811 431.866 72.6278V73.3814C439.759 75.7048 445.96 79.9749 450.346 86.0661C454.793 92.2201 456.986 100.07 456.986 109.614C456.986 117.276 455.169 124.057 451.536 129.96C447.902 135.926 442.578 140.573 435.436 144.027C428.358 147.48 419.838 149.176 409.878 149.176C395.407 149.176 383.505 145.596 374.171 138.438C364.837 131.279 359.888 120.918 359.199 107.479H381.312C381.876 114.324 384.57 119.913 389.581 124.246C394.53 128.579 401.233 130.714 409.69 130.714C418.147 130.714 424.16 128.579 428.608 124.246C433.056 119.913 435.248 114.324 435.248 107.479C435.248 98.4368 432.242 91.9689 426.29 88.2011C420.339 84.3706 411.193 82.4867 398.852 82.4867H393.653V64.276H399.103C409.94 64.1504 418.209 62.3921 423.91 59.0639C429.61 55.673 432.429 50.3981 432.429 43.1766C432.429 36.9598 430.362 31.999 426.228 28.3568C422.093 24.6519 416.205 22.8308 408.562 22.8308C400.92 22.8308 395.219 24.6519 391.085 28.3568C386.95 32.0618 384.444 36.5831 383.63 42.0463H361.329C362.143 29.9895 366.904 20.633 375.674 13.9138H375.737Z" fill="#1477FB"/>
<rect x="488.476" width="641.882" height="153.608" rx="14.3137" fill="#1477FB"/>
<path d="M564.89 98.4197L578.782 45.4277H588.258L571.238 107.804H558.082L541.246 45.4277H550.722L564.706 98.4197H564.89ZM640.121 108.632C630.737 108.632 620.525 102.744 620.525 92.4397V90.5077H630.001C630.093 96.3957 634.233 99.9837 640.121 99.9837C645.457 99.9837 650.425 97.4077 650.425 91.3357C650.425 84.5277 643.341 81.8597 636.257 78.5477C629.173 75.1437 621.997 71.1877 621.997 61.8957C621.997 51.1317 630.921 44.5997 641.225 44.5997C649.781 44.5997 659.257 50.5797 659.257 59.9637V61.1597H649.781C650.149 55.9157 646.009 53.2477 641.041 53.2477C636.073 53.2477 631.473 55.1797 631.473 61.0677C631.473 65.5757 635.061 67.9677 638.649 69.6237L644.169 72.1997C652.633 76.2477 659.901 80.6637 659.901 91.2437C659.901 102.192 650.425 108.632 640.121 108.632ZM707.163 99.1557H739.087V107.804H697.687V45.4277H707.163V99.1557ZM827.725 108.632C818.341 108.632 808.129 102.744 808.129 92.4397V90.5077H817.605C817.697 96.3957 821.837 99.9837 827.725 99.9837C833.061 99.9837 838.029 97.4077 838.029 91.3357C838.029 84.5277 830.945 81.8597 823.861 78.5477C816.777 75.1437 809.601 71.1877 809.601 61.8957C809.601 51.1317 818.525 44.5997 828.829 44.5997C837.385 44.5997 846.861 50.5797 846.861 59.9637V61.1597H837.385C837.753 55.9157 833.613 53.2477 828.645 53.2477C823.677 53.2477 819.077 55.1797 819.077 61.0677C819.077 65.5757 822.665 67.9677 826.253 69.6237L831.773 72.1997C840.237 76.2477 847.505 80.6637 847.505 91.2437C847.505 102.192 838.029 108.632 827.725 108.632ZM922.736 59.5037H913.26C912.984 55.7317 909.488 53.2477 905.532 53.2477C895.504 53.2477 893.94 68.9797 893.94 76.3397C893.94 83.7917 895.32 99.9837 905.532 99.9837C909.488 99.9837 912.984 97.2237 913.26 93.1757H922.736C922.736 102.468 914.732 108.632 905.9 108.632C889.064 108.632 884.464 90.4157 884.464 76.7997C884.464 62.4477 889.064 44.5997 905.9 44.5997C914.732 44.5997 922.736 50.5797 922.736 59.5037ZM985.455 81.2157L978.739 54.1677H978.555L971.747 81.2157H985.455ZM987.571 89.8637H969.539L965.123 107.804H955.555L972.575 45.4277H984.627L1001.65 107.804H992.079L987.571 89.8637ZM1066.11 90.6917V45.4277H1074.76V107.804H1064.46L1042.19 60.6077H1042.01V107.804H1033.36V45.4277H1044.4L1065.93 90.6917H1066.11Z" fill="white"/>
<path d="M564.89 98.4197V98.7797H565.168L565.238 98.511L564.89 98.4197ZM578.782 45.4277V45.0677H578.504L578.434 45.3364L578.782 45.4277ZM588.258 45.4277L588.605 45.5225L588.729 45.0677H588.258V45.4277ZM571.238 107.804V108.164H571.513L571.585 107.898L571.238 107.804ZM558.082 107.804L557.734 107.898L557.806 108.164H558.082V107.804ZM541.246 45.4277V45.0677H540.776L540.898 45.5215L541.246 45.4277ZM550.722 45.4277L551.07 45.3359L550.999 45.0677H550.722V45.4277ZM564.706 98.4197L564.358 98.5116L564.428 98.7797H564.706V98.4197ZM565.238 98.511L579.13 45.519L578.434 45.3364L564.542 98.3284L565.238 98.511ZM578.782 45.7877H588.258V45.0677H578.782V45.7877ZM587.911 45.3329L570.891 107.709L571.585 107.898L588.605 45.5225L587.911 45.3329ZM571.238 107.444H558.082V108.164H571.238V107.444ZM558.429 107.71L541.593 45.3339L540.898 45.5215L557.734 107.898L558.429 107.71ZM541.246 45.7877H550.722V45.0677H541.246V45.7877ZM550.374 45.5196L564.358 98.5116L565.054 98.3279L551.07 45.3359L550.374 45.5196ZM564.706 98.7797H564.89V98.0597H564.706V98.7797ZM620.525 90.5077V90.1477H620.165V90.5077H620.525ZM630.001 90.5077L630.361 90.5021L630.355 90.1477H630.001V90.5077ZM636.257 78.5477L636.101 78.8722L636.104 78.8738L636.257 78.5477ZM659.257 61.1597V61.5197H659.617V61.1597H659.257ZM649.781 61.1597L649.422 61.1345L649.395 61.5197H649.781V61.1597ZM638.649 69.6237L638.801 69.2975L638.8 69.2968L638.649 69.6237ZM644.169 72.1997L644.324 71.8749L644.321 71.8735L644.169 72.1997ZM640.121 108.272C635.498 108.272 630.676 106.82 627.018 104.11C623.367 101.406 620.885 97.4582 620.885 92.4397H620.165C620.165 97.7252 622.789 101.874 626.589 104.689C630.383 107.499 635.359 108.992 640.121 108.992V108.272ZM620.885 92.4397V90.5077H620.165V92.4397H620.885ZM620.525 90.8677H630.001V90.1477H620.525V90.8677ZM629.641 90.5133C629.688 93.5446 630.78 96.0118 632.644 97.7192C634.505 99.4238 637.104 100.344 640.121 100.344V99.6237C637.249 99.6237 634.835 98.7496 633.13 97.1883C631.429 95.6296 630.405 93.3588 630.361 90.5021L629.641 90.5133ZM640.121 100.344C642.84 100.344 645.498 99.6883 647.487 98.2268C649.49 96.7548 650.785 94.4842 650.785 91.3357H650.065C650.065 94.2592 648.876 96.3127 647.06 97.6466C645.231 98.9911 642.737 99.6237 640.121 99.6237V100.344ZM650.785 91.3357C650.785 87.7766 648.921 85.3118 646.209 83.3396C643.516 81.3812 639.928 79.8667 636.409 78.2216L636.104 78.8738C639.67 80.5407 643.165 82.0162 645.785 83.9219C648.387 85.8136 650.065 88.0868 650.065 91.3357H650.785ZM636.413 78.2232C632.868 76.52 629.353 74.7014 626.72 72.1702C624.102 69.6537 622.357 66.4323 622.357 61.8957H621.637C621.637 66.6511 623.479 70.0537 626.221 72.6892C628.947 75.31 632.561 77.1714 636.101 78.8722L636.413 78.2232ZM622.357 61.8957C622.357 51.3845 631.061 44.9597 641.225 44.9597V44.2397C630.78 44.2397 621.637 50.8789 621.637 61.8957H622.357ZM641.225 44.9597C645.425 44.9597 649.855 46.4293 653.228 49.0471C656.598 51.6614 658.897 55.4046 658.897 59.9637H659.617C659.617 55.1388 657.178 51.2 653.67 48.4783C650.167 45.7601 645.581 44.2397 641.225 44.2397V44.9597ZM658.897 59.9637V61.1597H659.617V59.9637H658.897ZM659.257 60.7997H649.781V61.5197H659.257V60.7997ZM650.14 61.1849C650.332 58.4518 649.344 56.3588 647.64 54.959C645.949 53.5698 643.583 52.8877 641.041 52.8877V53.6077C643.466 53.6077 645.654 54.2597 647.183 55.5154C648.699 56.7606 649.598 58.6236 649.422 61.1345L650.14 61.1849ZM641.041 52.8877C638.519 52.8877 636.044 53.3764 634.19 54.6532C632.314 55.9445 631.113 58.0146 631.113 61.0677H631.833C631.833 58.2329 632.932 56.393 634.598 55.2462C636.285 54.085 638.594 53.6077 641.041 53.6077V52.8877ZM631.113 61.0677C631.113 65.8145 634.906 68.293 638.498 69.9506L638.8 69.2968C635.215 67.6424 631.833 65.3369 631.833 61.0677H631.113ZM638.496 69.9499L644.016 72.5259L644.321 71.8735L638.801 69.2975L638.496 69.9499ZM644.013 72.5245C648.244 74.5481 652.125 76.6413 654.952 79.5242C657.762 82.3912 659.541 86.0504 659.541 91.2437H660.261C660.261 85.857 658.405 82.0182 655.466 79.0202C652.542 76.0381 648.557 73.8994 644.324 71.8749L644.013 72.5245ZM659.541 91.2437C659.541 101.927 650.298 108.272 640.121 108.272V108.992C650.551 108.992 660.261 102.456 660.261 91.2437H659.541ZM707.163 99.1557H706.803V99.5157H707.163V99.1557ZM739.087 99.1557H739.447V98.7957H739.087V99.1557ZM739.087 107.804V108.164H739.447V107.804H739.087ZM697.687 107.804H697.327V108.164H697.687V107.804ZM697.687 45.4277V45.0677H697.327V45.4277H697.687ZM707.163 45.4277H707.523V45.0677H707.163V45.4277ZM707.163 99.5157H739.087V98.7957H707.163V99.5157ZM738.727 99.1557V107.804H739.447V99.1557H738.727ZM739.087 107.444H697.687V108.164H739.087V107.444ZM698.047 107.804V45.4277H697.327V107.804H698.047ZM697.687 45.7877H707.163V45.0677H697.687V45.7877ZM706.803 45.4277V99.1557H707.523V45.4277H706.803ZM808.129 90.5077V90.1477H807.769V90.5077H808.129ZM817.605 90.5077L817.965 90.5021L817.96 90.1477H817.605V90.5077ZM823.861 78.5477L823.705 78.8722L823.709 78.8738L823.861 78.5477ZM846.861 61.1597V61.5197H847.221V61.1597H846.861ZM837.385 61.1597L837.026 61.1345L836.999 61.5197H837.385V61.1597ZM826.253 69.6237L826.405 69.2975L826.404 69.2968L826.253 69.6237ZM831.773 72.1997L831.929 71.8749L831.925 71.8735L831.773 72.1997ZM827.725 108.272C823.102 108.272 818.28 106.82 814.622 104.11C810.971 101.406 808.489 97.4582 808.489 92.4397H807.769C807.769 97.7252 810.393 101.874 814.194 104.689C817.988 107.499 822.964 108.992 827.725 108.992V108.272ZM808.489 92.4397V90.5077H807.769V92.4397H808.489ZM808.129 90.8677H817.605V90.1477H808.129V90.8677ZM817.245 90.5133C817.293 93.5446 818.385 96.0118 820.249 97.7192C822.109 99.4238 824.709 100.344 827.725 100.344V99.6237C824.854 99.6237 822.439 98.7496 820.735 97.1883C819.034 95.6296 818.01 93.3588 817.965 90.5021L817.245 90.5133ZM827.725 100.344C830.444 100.344 833.103 99.6883 835.091 98.2268C837.094 96.7548 838.389 94.4842 838.389 91.3357H837.669C837.669 94.2592 836.48 96.3127 834.665 97.6466C832.836 98.9911 830.342 99.6237 827.725 99.6237V100.344ZM838.389 91.3357C838.389 87.7766 836.525 85.3118 833.813 83.3396C831.121 81.3812 827.532 79.8667 824.014 78.2216L823.709 78.8738C827.274 80.5407 830.77 82.0162 833.39 83.9219C835.991 85.8136 837.669 88.0868 837.669 91.3357H838.389ZM824.017 78.2232C820.473 76.52 816.957 74.7014 814.324 72.1702C811.707 69.6537 809.961 66.4323 809.961 61.8957H809.241C809.241 66.6511 811.084 70.0537 813.825 72.6892C816.551 75.31 820.166 77.1714 823.705 78.8722L824.017 78.2232ZM809.961 61.8957C809.961 51.3845 818.665 44.9597 828.829 44.9597V44.2397C818.385 44.2397 809.241 50.8789 809.241 61.8957H809.961ZM828.829 44.9597C833.029 44.9597 837.459 46.4293 840.833 49.0471C844.202 51.6614 846.501 55.4046 846.501 59.9637H847.221C847.221 55.1388 844.782 51.2 841.274 48.4783C837.771 45.7601 833.185 44.2397 828.829 44.2397V44.9597ZM846.501 59.9637V61.1597H847.221V59.9637H846.501ZM846.861 60.7997H837.385V61.5197H846.861V60.7997ZM837.744 61.1849C837.936 58.4518 836.949 56.3588 835.245 54.959C833.553 53.5698 831.188 52.8877 828.645 52.8877V53.6077C831.071 53.6077 833.259 54.2597 834.788 55.5154C836.304 56.7606 837.202 58.6236 837.026 61.1345L837.744 61.1849ZM828.645 52.8877C826.124 52.8877 823.649 53.3764 821.794 54.6532C819.918 55.9445 818.717 58.0146 818.717 61.0677H819.437C819.437 58.2329 820.536 56.393 822.202 55.2462C823.889 54.085 826.198 53.6077 828.645 53.6077V52.8877ZM818.717 61.0677C818.717 65.8145 822.511 68.293 826.102 69.9506L826.404 69.2968C822.819 67.6424 819.437 65.3369 819.437 61.0677H818.717ZM826.101 69.9499L831.621 72.5259L831.925 71.8735L826.405 69.2975L826.101 69.9499ZM831.618 72.5245C835.849 74.5481 839.73 76.6413 842.556 79.5242C845.367 82.3912 847.145 86.0504 847.145 91.2437H847.865C847.865 85.857 846.009 82.0182 843.07 79.0202C840.147 76.0381 836.161 73.8994 831.929 71.8749L831.618 72.5245ZM847.145 91.2437C847.145 101.927 837.903 108.272 827.725 108.272V108.992C838.155 108.992 847.865 102.456 847.865 91.2437H847.145ZM922.736 59.5037V59.8637H923.096V59.5037H922.736ZM913.26 59.5037L912.901 59.53L912.925 59.8637H913.26V59.5037ZM913.26 93.1757V92.8157H912.924L912.901 93.1512L913.26 93.1757ZM922.736 93.1757H923.096V92.8157H922.736V93.1757ZM922.736 59.1437H913.26V59.8637H922.736V59.1437ZM913.619 59.4774C913.325 55.463 909.617 52.8877 905.532 52.8877V53.6077C909.359 53.6077 912.643 56.0004 912.901 59.53L913.619 59.4774ZM905.532 52.8877C900.274 52.8877 897.292 57.0276 895.635 61.9182C893.972 66.8256 893.58 72.6441 893.58 76.3397H894.3C894.3 72.6753 894.69 66.9478 896.316 62.1492C897.948 57.3338 900.762 53.6077 905.532 53.6077V52.8877ZM893.58 76.3397C893.58 80.0784 893.925 86.0343 895.564 91.0677C897.197 96.0826 900.178 100.344 905.532 100.344V99.6237C900.674 99.6237 897.859 95.7888 896.249 90.8447C894.645 85.9192 894.3 80.053 894.3 76.3397H893.58ZM905.532 100.344C909.647 100.344 913.328 97.4661 913.619 93.2002L912.901 93.1512C912.64 96.9813 909.329 99.6237 905.532 99.6237V100.344ZM913.26 93.5357H922.736V92.8157H913.26V93.5357ZM922.376 93.1757C922.376 102.224 914.582 108.272 905.9 108.272V108.992C914.882 108.992 923.096 102.712 923.096 93.1757H922.376ZM905.9 108.272C897.646 108.272 892.396 103.822 889.188 97.6556C885.97 91.4707 884.824 83.5774 884.824 76.7997H884.104C884.104 83.638 885.258 91.6607 888.549 97.9879C891.85 104.334 897.318 108.992 905.9 108.992V108.272ZM884.824 76.7997C884.824 69.652 885.971 61.6675 889.188 55.4839C892.394 49.3209 897.643 44.9597 905.9 44.9597V44.2397C897.321 44.2397 891.852 48.8025 888.549 55.1516C885.257 61.4799 884.104 69.5954 884.104 76.7997H884.824ZM905.9 44.9597C914.594 44.9597 922.376 50.8345 922.376 59.5037H923.096C923.096 50.3249 914.87 44.2397 905.9 44.2397V44.9597ZM985.455 81.2157V81.5757H985.915L985.804 81.129L985.455 81.2157ZM978.739 54.1677L979.088 54.081L979.02 53.8077H978.739V54.1677ZM978.555 54.1677V53.8077H978.274L978.206 54.0798L978.555 54.1677ZM971.747 81.2157L971.398 81.1278L971.285 81.5757H971.747V81.2157ZM987.571 89.8637L987.92 89.776L987.852 89.5037H987.571V89.8637ZM969.539 89.8637V89.5037H969.257L969.189 89.7777L969.539 89.8637ZM965.123 107.804V108.164H965.405L965.472 107.89L965.123 107.804ZM955.555 107.804L955.208 107.709L955.083 108.164H955.555V107.804ZM972.575 45.4277V45.0677H972.3L972.228 45.3329L972.575 45.4277ZM984.627 45.4277L984.974 45.3329L984.902 45.0677H984.627V45.4277ZM1001.65 107.804V108.164H1002.12L1001.99 107.709L1001.65 107.804ZM992.079 107.804L991.73 107.891L991.798 108.164H992.079V107.804ZM985.804 81.129L979.088 54.081L978.389 54.2545L985.105 81.3025L985.804 81.129ZM978.739 53.8077H978.555V54.5277H978.739V53.8077ZM978.206 54.0798L971.398 81.1278L972.096 81.3036L978.904 54.2556L978.206 54.0798ZM971.747 81.5757H985.455V80.8557H971.747V81.5757ZM987.571 89.5037H969.539V90.2237H987.571V89.5037ZM969.189 89.7777L964.773 107.718L965.472 107.89L969.888 89.9498L969.189 89.7777ZM965.123 107.444H955.555V108.164H965.123V107.444ZM955.902 107.898L972.922 45.5225L972.228 45.3329L955.208 107.709L955.902 107.898ZM972.575 45.7877H984.627V45.0677H972.575V45.7877ZM984.28 45.5225L1001.3 107.898L1001.99 107.709L984.974 45.3329L984.28 45.5225ZM1001.65 107.444H992.079V108.164H1001.65V107.444ZM992.428 107.716L987.92 89.776L987.222 89.9514L991.73 107.891L992.428 107.716ZM1066.11 90.6917V91.0517H1066.47V90.6917H1066.11ZM1066.11 45.4277V45.0677H1065.75V45.4277H1066.11ZM1074.76 45.4277H1075.12V45.0677H1074.76V45.4277ZM1074.76 107.804V108.164H1075.12V107.804H1074.76ZM1064.46 107.804L1064.13 107.957L1064.23 108.164H1064.46V107.804ZM1042.19 60.6077L1042.52 60.4541L1042.42 60.2477H1042.19V60.6077ZM1042.01 60.6077V60.2477H1041.65V60.6077H1042.01ZM1042.01 107.804V108.164H1042.37V107.804H1042.01ZM1033.36 107.804H1033V108.164H1033.36V107.804ZM1033.36 45.4277V45.0677H1033V45.4277H1033.36ZM1044.4 45.4277L1044.73 45.2731L1044.63 45.0677H1044.4V45.4277ZM1065.93 90.6917L1065.6 90.8463L1065.7 91.0517H1065.93V90.6917ZM1066.47 90.6917V45.4277H1065.75V90.6917H1066.47ZM1066.11 45.7877H1074.76V45.0677H1066.11V45.7877ZM1074.4 45.4277V107.804H1075.12V45.4277H1074.4ZM1074.76 107.444H1064.46V108.164H1074.76V107.444ZM1064.78 107.65L1042.52 60.4541L1041.87 60.7613L1064.13 107.957L1064.78 107.65ZM1042.19 60.2477H1042.01V60.9677H1042.19V60.2477ZM1041.65 60.6077V107.804H1042.37V60.6077H1041.65ZM1042.01 107.444H1033.36V108.164H1042.01V107.444ZM1033.72 107.804V45.4277H1033V107.804H1033.72ZM1033.36 45.7877H1044.4V45.0677H1033.36V45.7877ZM1044.08 45.5823L1065.6 90.8463L1066.25 90.5371L1044.73 45.2731L1044.08 45.5823ZM1065.93 91.0517H1066.11V90.3317H1065.93V91.0517Z" fill="white"/>
</svg>
