<svg xmlns="http://www.w3.org/2000/svg" width="544" height="101" fill="none" viewBox="0 0 544 101"><g clip-path="url(#clip0_5012_2)"><path fill="#1477F9" d="M94.5469 0H5.23626C2.34435 0 0 2.34057 0 5.22781V95.7722C0 98.6594 2.34435 101 5.23626 101H94.5469C97.4388 101 99.7831 98.6594 99.7831 95.7722V5.22781C99.7831 2.34057 97.4388 0 94.5469 0Z"/><path fill="#fff" d="M67.4927 82.4494V76.6137C67.4927 72.2977 70.9937 68.7922 75.3268 68.7922H81.4358C82.3897 68.7922 83.1609 68.0222 83.1609 67.0699V32.8764V18.7937C83.1609 17.7097 82.2781 16.8384 81.2024 16.8384H68.061C66.9955 16.8384 66.1228 17.6995 66.1228 18.7735V36.4325V60.2616C66.1228 64.5776 62.6218 68.083 58.2887 68.083H50.0487H49.8965H49.7443H41.5043C37.1813 68.083 33.6803 64.5877 33.6803 60.2717V36.4427V18.7836C33.6803 17.7198 32.8178 16.8485 31.7421 16.8485H18.6007C17.5149 16.8485 16.6422 17.7299 16.6422 18.8039V32.8865V67.08C16.6422 68.0324 17.4134 68.8024 18.3673 68.8024H24.4763C28.7993 68.8024 32.3104 72.2977 32.3104 76.6238V82.4595C32.3104 83.4119 33.0816 84.1818 34.0355 84.1818H49.9168H65.7981C66.752 84.1818 67.5232 83.4119 67.5232 82.4595L67.4927 82.4494Z"/></g><path fill="#fff" d="M192.483 16.5404L166.529 85H158.694L132.74 16.5404H140.183L162.611 77.5566L185.235 16.5404H192.483ZM220.609 85.6856C216.104 85.6856 212.121 84.9021 208.66 83.335C205.265 81.768 202.588 79.5807 200.629 76.7731C198.671 73.9655 197.626 70.8314 197.495 67.3709H204.743C205.069 70.7008 206.538 73.639 209.15 76.1855C211.762 78.6666 215.581 79.9072 220.609 79.9072C225.245 79.9072 228.901 78.7319 231.578 76.3813C234.32 73.9655 235.692 70.9294 235.692 67.273C235.692 64.3348 234.941 61.9842 233.439 60.2213C231.937 58.3931 230.076 57.0546 227.856 56.2058C225.636 55.2917 222.568 54.3123 218.65 53.2676C214.08 52.0271 210.456 50.8191 207.779 49.6439C205.102 48.4686 202.817 46.6404 200.923 44.1593C199.03 41.6781 198.083 38.3156 198.083 34.0715C198.083 30.5457 198.997 27.4116 200.825 24.6693C202.653 21.8617 205.232 19.6744 208.562 18.1074C211.892 16.5404 215.712 15.7568 220.021 15.7568C226.355 15.7568 231.448 17.3239 235.3 20.4579C239.217 23.5267 241.47 27.5096 242.058 32.4065H234.614C234.157 29.5989 232.623 27.1178 230.011 24.9631C227.399 22.7432 223.874 21.6332 219.434 21.6332C215.32 21.6332 211.892 22.7432 209.15 24.9631C206.408 27.1178 205.037 30.0886 205.037 33.8756C205.037 36.7485 205.787 39.0664 207.289 40.8293C208.791 42.5922 210.652 43.9307 212.872 44.8448C215.157 45.7589 218.226 46.7383 222.078 47.783C226.518 49.0236 230.109 50.2642 232.851 51.5047C235.594 52.68 237.912 54.5082 239.805 56.9893C241.699 59.4705 242.645 62.8004 242.645 66.9792C242.645 70.1785 241.796 73.2146 240.099 76.0875C238.401 78.9604 235.887 81.2783 232.558 83.0412C229.228 84.8041 225.245 85.6856 220.609 85.6856ZM259.811 79.4175H284.393V85H252.955V16.5404H259.811V79.4175ZM335.94 85.6856C331.435 85.6856 327.452 84.9021 323.992 83.335C320.596 81.768 317.919 79.5807 315.961 76.7731C314.002 73.9655 312.957 70.8314 312.827 67.3709H320.074C320.401 70.7008 321.87 73.639 324.481 76.1855C327.093 78.6666 330.913 79.9072 335.94 79.9072C340.576 79.9072 344.232 78.7319 346.909 76.3813C349.652 73.9655 351.023 70.9294 351.023 67.273C351.023 64.3348 350.272 61.9842 348.77 60.2213C347.269 58.3931 345.408 57.0546 343.188 56.2058C340.968 55.2917 337.899 54.3123 333.981 53.2676C329.411 52.0271 325.787 50.8191 323.11 49.6439C320.433 48.4686 318.148 46.6404 316.254 44.1593C314.361 41.6781 313.414 38.3156 313.414 34.0715C313.414 30.5457 314.328 27.4116 316.156 24.6693C317.985 21.8617 320.564 19.6744 323.894 18.1074C327.224 16.5404 331.043 15.7568 335.353 15.7568C341.686 15.7568 346.779 17.3239 350.631 20.4579C354.549 23.5267 356.801 27.5096 357.389 32.4065H349.946C349.489 29.5989 347.954 27.1178 345.342 24.9631C342.731 22.7432 339.205 21.6332 334.765 21.6332C330.651 21.6332 327.224 22.7432 324.481 24.9631C321.739 27.1178 320.368 30.0886 320.368 33.8756C320.368 36.7485 321.119 39.0664 322.62 40.8293C324.122 42.5922 325.983 43.9307 328.203 44.8448C330.488 45.7589 333.557 46.7383 337.409 47.783C341.849 49.0236 345.44 50.2642 348.183 51.5047C350.925 52.68 353.243 54.5082 355.136 56.9893C357.03 59.4705 357.977 62.8004 357.977 66.9792C357.977 70.1785 357.128 73.2146 355.43 76.0875C353.733 78.9604 351.219 81.2783 347.889 83.0412C344.559 84.8041 340.576 85.6856 335.94 85.6856ZM365.152 58.2625C365.152 52.7126 366.262 47.881 368.482 43.7675C370.702 39.5888 373.771 36.3894 377.688 34.1695C381.606 31.8842 386.079 30.7416 391.106 30.7416C397.701 30.7416 403.12 32.3739 407.364 35.6385C411.673 38.9032 414.448 43.3431 415.689 48.9583H408.343C407.429 45.106 405.438 42.1025 402.369 39.9479C399.366 37.7279 395.611 36.6179 391.106 36.6179C387.515 36.6179 384.283 37.4341 381.41 39.0664C378.537 40.6987 376.252 43.1472 374.554 46.4119C372.922 49.6112 372.106 53.5615 372.106 58.2625C372.106 62.9636 372.922 66.9465 374.554 70.2112C376.252 73.4758 378.537 75.9243 381.41 77.5566C384.283 79.1889 387.515 80.0051 391.106 80.0051C395.611 80.0051 399.366 78.9278 402.369 76.7731C405.438 74.5531 407.429 71.4844 408.343 67.5668H415.689C414.448 73.0514 411.673 77.4587 407.364 80.7886C403.055 84.1185 397.635 85.7835 391.106 85.7835C386.079 85.7835 381.606 84.6735 377.688 82.4536C373.771 80.1683 370.702 76.969 368.482 72.8555C366.262 68.6768 365.152 63.8124 365.152 58.2625ZM422.278 58.1646C422.278 52.68 423.356 47.881 425.51 43.7675C427.73 39.5888 430.766 36.3894 434.619 34.1695C438.536 31.8842 442.944 30.7416 447.841 30.7416C452.933 30.7416 457.308 31.9168 460.964 34.2674C464.686 36.6179 467.363 39.6214 468.995 43.2778V31.5251H475.851V85H468.995V73.1493C467.298 76.8057 464.588 79.8419 460.867 82.2577C457.21 84.6082 452.835 85.7835 447.743 85.7835C442.911 85.7835 438.536 84.6409 434.619 82.3556C430.766 80.0704 427.73 76.8384 425.51 72.6596C423.356 68.4809 422.278 63.6492 422.278 58.1646ZM468.995 58.2625C468.995 53.9532 468.114 50.1662 466.351 46.9016C464.588 43.6369 462.172 41.1232 459.104 39.3602C456.1 37.5973 452.77 36.7159 449.114 36.7159C445.327 36.7159 441.932 37.5647 438.928 39.2623C435.925 40.9599 433.541 43.441 431.779 46.7057C430.081 49.905 429.232 53.7247 429.232 58.1646C429.232 62.5392 430.081 66.3915 431.779 69.7215C433.541 72.9861 435.925 75.4999 438.928 77.2628C441.932 78.9604 445.327 79.8092 449.114 79.8092C452.77 79.8092 456.1 78.9278 459.104 77.1648C462.172 75.4019 464.588 72.8882 466.351 69.6235C468.114 66.3589 468.995 62.5719 468.995 58.2625ZM513.637 30.5457C520.035 30.5457 525.259 32.5371 529.307 36.52C533.355 40.4376 535.379 46.1507 535.379 53.6594V85H528.621V54.4429C528.621 48.6318 527.152 44.1919 524.214 41.1232C521.341 38.0544 517.391 36.52 512.363 36.52C507.205 36.52 503.092 38.1523 500.023 41.417C496.954 44.6816 495.42 49.4806 495.42 55.8141V85H488.564V31.5251H495.42V40.6335C497.118 37.3688 499.566 34.8877 502.765 33.1901C505.965 31.4271 509.589 30.5457 513.637 30.5457Z"/><defs><clipPath id="clip0_5012_2"><rect width="99.783" height="101" fill="#fff"/></clipPath></defs></svg>